<svg width="133" height="133" viewBox="0 0 133 133" fill="none" xmlns="http://www.w3.org/2000/svg">
<mask id="path-1-outside-1" maskUnits="userSpaceOnUse" x="104" y="17" width="29" height="93" fill="black">
<rect fill="white" x="104" y="17" width="29" height="93"/>
<path d="M116.929 106.715C126.926 94.1774 131.896 78.3656 130.867 62.3632C129.839 46.3607 122.886 31.3152 111.366 20.161L106.879 24.7949C117.248 34.8336 123.505 48.3746 124.43 62.7769C125.356 77.1791 120.884 91.4096 111.886 102.693L116.929 106.715Z"/>
</mask>
<path d="M116.929 106.715C126.926 94.1774 131.896 78.3656 130.867 62.3632C129.839 46.3607 122.886 31.3152 111.366 20.161L106.879 24.7949C117.248 34.8336 123.505 48.3746 124.43 62.7769C125.356 77.1791 120.884 91.4096 111.886 102.693L116.929 106.715Z" fill="#00D1FF"/>
<path d="M116.929 106.715C126.926 94.1774 131.896 78.3656 130.867 62.3632C129.839 46.3607 122.886 31.3152 111.366 20.161L106.879 24.7949C117.248 34.8336 123.505 48.3746 124.43 62.7769C125.356 77.1791 120.884 91.4096 111.886 102.693L116.929 106.715Z" stroke="white" stroke-width="4" mask="url(#path-1-outside-1)"/>
<mask id="path-2-outside-2" maskUnits="userSpaceOnUse" x="94" y="99" width="26" height="25" fill="black">
<rect fill="white" x="94" y="99" width="26" height="25"/>
<path d="M101.115 120.924C107.202 117.053 112.596 112.189 117.073 106.533L112.015 102.53C107.986 107.62 103.132 111.998 97.6539 115.482L101.115 120.924Z"/>
</mask>
<path d="M101.115 120.924C107.202 117.053 112.596 112.189 117.073 106.533L112.015 102.53C107.986 107.62 103.132 111.998 97.6539 115.482L101.115 120.924Z" fill="#006AE3"/>
<path d="M101.115 120.924C107.202 117.053 112.596 112.189 117.073 106.533L112.015 102.53C107.986 107.62 103.132 111.998 97.6539 115.482L101.115 120.924Z" stroke="white" stroke-width="4" mask="url(#path-2-outside-2)"/>
<mask id="path-3-outside-3" maskUnits="userSpaceOnUse" x="-5.72619e-06" y="42" width="104" height="91" fill="black">
<rect fill="white" x="-5.72619e-06" y="42" width="104" height="91"/>
<path d="M5.70516 44.9538C1.24927 57.5266 0.801022 71.1717 4.42217 84.0098C8.04332 96.8479 15.5557 108.248 25.9248 116.639C36.2938 125.03 49.0095 130 62.3205 130.864C75.6315 131.729 88.8831 128.445 100.25 121.465L96.8753 115.969C86.6448 122.25 74.7184 125.206 62.7384 124.428C50.7585 123.65 39.3145 119.177 29.9823 111.625C20.6501 104.073 13.889 93.8131 10.6299 82.2588C7.37092 70.7045 7.77434 58.424 11.7846 47.1084L5.70516 44.9538Z"/>
</mask>
<path d="M5.70516 44.9538C1.24927 57.5266 0.801022 71.1717 4.42217 84.0098C8.04332 96.8479 15.5557 108.248 25.9248 116.639C36.2938 125.03 49.0095 130 62.3205 130.864C75.6315 131.729 88.8831 128.445 100.25 121.465L96.8753 115.969C86.6448 122.25 74.7184 125.206 62.7384 124.428C50.7585 123.65 39.3145 119.177 29.9823 111.625C20.6501 104.073 13.889 93.8131 10.6299 82.2588C7.37092 70.7045 7.77434 58.424 11.7846 47.1084L5.70516 44.9538Z" fill="#2A5ADA"/>
<path d="M5.70516 44.9538C1.24927 57.5266 0.801022 71.1717 4.42217 84.0098C8.04332 96.8479 15.5557 108.248 25.9248 116.639C36.2938 125.03 49.0095 130 62.3205 130.864C75.6315 131.729 88.8831 128.445 100.25 121.465L96.8753 115.969C86.6448 122.25 74.7184 125.206 62.7384 124.428C50.7585 123.65 39.3145 119.177 29.9823 111.625C20.6501 104.073 13.889 93.8131 10.6299 82.2588C7.37092 70.7045 7.77434 58.424 11.7846 47.1084L5.70516 44.9538Z" stroke="white" stroke-width="4" mask="url(#path-3-outside-3)"/>
<mask id="path-4-outside-4" maskUnits="userSpaceOnUse" x="3" y="0.999994" width="51" height="49" fill="black">
<rect fill="white" x="3" y="0.999994" width="51" height="49"/>
<path d="M5.70516 44.9538C9.1928 35.1131 15.0172 26.266 22.678 19.1726C30.3388 12.0792 39.607 6.95152 49.6865 4.22996L51.3679 10.457C42.2963 12.9064 33.9549 17.5213 27.0602 23.9054C20.1655 30.2894 14.9235 38.2518 11.7846 47.1084L5.70516 44.9538Z"/>
</mask>
<path d="M5.70516 44.9538C9.1928 35.1131 15.0172 26.266 22.678 19.1726C30.3388 12.0792 39.607 6.95152 49.6865 4.22996L51.3679 10.457C42.2963 12.9064 33.9549 17.5213 27.0602 23.9054C20.1655 30.2894 14.9235 38.2518 11.7846 47.1084L5.70516 44.9538Z" fill="#E6CDDE"/>
<path d="M5.70516 44.9538C9.1928 35.1131 15.0172 26.266 22.678 19.1726C30.3388 12.0792 39.607 6.95152 49.6865 4.22996L51.3679 10.457C42.2963 12.9064 33.9549 17.5213 27.0602 23.9054C20.1655 30.2894 14.9235 38.2518 11.7846 47.1084L5.70516 44.9538Z" stroke="white" stroke-width="4" mask="url(#path-4-outside-4)"/>
<mask id="path-5-outside-5" maskUnits="userSpaceOnUse" x="47" y="-3.67176e-06" width="67" height="28" fill="black">
<rect fill="white" x="47" y="-3.67176e-06" width="67" height="28"/>
<path d="M49.6359 4.24364C60.3487 1.34175 71.6291 1.25333 82.386 3.98693C93.143 6.72053 103.013 12.1836 111.04 19.8479L106.586 24.5131C99.3613 17.6153 90.4787 12.6985 80.7974 10.2382C71.1162 7.778 60.9639 7.85758 51.3223 10.4693L49.6359 4.24364Z"/>
</mask>
<path d="M49.6359 4.24364C60.3487 1.34175 71.6291 1.25333 82.386 3.98693C93.143 6.72053 103.013 12.1836 111.04 19.8479L106.586 24.5131C99.3613 17.6153 90.4787 12.6985 80.7974 10.2382C71.1162 7.778 60.9639 7.85758 51.3223 10.4693L49.6359 4.24364Z" fill="#56B2A3"/>
<path d="M49.6359 4.24364C60.3487 1.34175 71.6291 1.25333 82.386 3.98693C93.143 6.72053 103.013 12.1836 111.04 19.8479L106.586 24.5131C99.3613 17.6153 90.4787 12.6985 80.7974 10.2382C71.1162 7.778 60.9639 7.85758 51.3223 10.4693L49.6359 4.24364Z" stroke="white" stroke-width="4" mask="url(#path-5-outside-5)"/>
</svg>
