<svg width="134" height="133" viewBox="0 0 134 133" fill="none" xmlns="http://www.w3.org/2000/svg">
<mask id="path-1-outside-1" maskUnits="userSpaceOnUse" x="36" y="0" width="29" height="17" fill="black">
<rect fill="white" x="36" width="29" height="17"/>
<path d="M62.0807 2.15158C54.0161 2.70544 46.1274 4.77032 38.8257 8.23867L41.5931 14.0648C48.1647 10.9433 55.2645 9.08489 62.5226 8.58642L62.0807 2.15158Z"/>
</mask>
<path d="M62.0807 2.15158C54.0161 2.70544 46.1274 4.77032 38.8257 8.23867L41.5931 14.0648C48.1647 10.9433 55.2645 9.08489 62.5226 8.58642L62.0807 2.15158Z" fill="#26A17B"/>
<path d="M62.0807 2.15158C54.0161 2.70544 46.1274 4.77032 38.8257 8.23867L41.5931 14.0648C48.1647 10.9433 55.2645 9.08489 62.5226 8.58642L62.0807 2.15158Z" stroke="white" stroke-width="4" mask="url(#path-1-outside-1)"/>
<mask id="path-2-outside-2" maskUnits="userSpaceOnUse" x="0" y="48" width="17" height="49" fill="black">
<rect fill="white" y="48" width="17" height="49"/>
<path d="M3.78973 51.4112C0.354767 65.6872 1.89359 80.7079 8.15186 93.9908L13.9867 91.2417C8.35423 79.2871 6.96929 65.7685 10.0608 52.9201L3.78973 51.4112Z"/>
</mask>
<path d="M3.78973 51.4112C0.354767 65.6872 1.89359 80.7079 8.15186 93.9908L13.9867 91.2417C8.35423 79.2871 6.96929 65.7685 10.0608 52.9201L3.78973 51.4112Z" fill="#FFBF22"/>
<path d="M3.78973 51.4112C0.354767 65.6872 1.89359 80.7079 8.15186 93.9908L13.9867 91.2417C8.35423 79.2871 6.96929 65.7685 10.0608 52.9201L3.78973 51.4112Z" stroke="white" stroke-width="4" mask="url(#path-2-outside-2)"/>
<mask id="path-3-outside-3" maskUnits="userSpaceOnUse" x="96" y="67" width="38" height="56" fill="black">
<rect fill="white" x="96" y="67" width="38" height="56"/>
<path d="M102.805 119.812C110.969 114.253 117.746 106.893 122.616 98.3005C127.485 89.7078 130.316 80.1117 130.891 70.2519L124.452 69.8767C123.935 78.7505 121.387 87.387 117.004 95.1204C112.622 102.854 106.522 109.477 99.1749 114.481L102.805 119.812Z"/>
</mask>
<path d="M102.805 119.812C110.969 114.253 117.746 106.893 122.616 98.3005C127.485 89.7078 130.316 80.1117 130.891 70.2519L124.452 69.8767C123.935 78.7505 121.387 87.387 117.004 95.1204C112.622 102.854 106.522 109.477 99.1749 114.481L102.805 119.812Z" fill="#BFBBBB"/>
<path d="M102.805 119.812C110.969 114.253 117.746 106.893 122.616 98.3005C127.485 89.7078 130.316 80.1117 130.891 70.2519L124.452 69.8767C123.935 78.7505 121.387 87.387 117.004 95.1204C112.622 102.854 106.522 109.477 99.1749 114.481L102.805 119.812Z" stroke="white" stroke-width="4" mask="url(#path-3-outside-3)"/>
<mask id="path-4-outside-4" maskUnits="userSpaceOnUse" x="6" y="89" width="42" height="41" fill="black">
<rect fill="white" x="6" y="89" width="42" height="41"/>
<path d="M8.88952 95.5049C16.0212 109.67 28.1216 120.711 42.879 126.519L45.2411 120.517C31.9594 115.29 21.0691 105.353 14.6506 92.6044L8.88952 95.5049Z"/>
</mask>
<path d="M8.88952 95.5049C16.0212 109.67 28.1216 120.711 42.879 126.519L45.2411 120.517C31.9594 115.29 21.0691 105.353 14.6506 92.6044L8.88952 95.5049Z" fill="#2A5ADA"/>
<path d="M8.88952 95.5049C16.0212 109.67 28.1216 120.711 42.879 126.519L45.2411 120.517C31.9594 115.29 21.0691 105.353 14.6506 92.6044L8.88952 95.5049Z" stroke="white" stroke-width="4" mask="url(#path-4-outside-4)"/>
<mask id="path-5-outside-5" maskUnits="userSpaceOnUse" x="1" y="18" width="28" height="36" fill="black">
<rect fill="white" x="1" y="18" width="28" height="36"/>
<path d="M20.8916 20.8916C12.9681 28.8151 7.24554 38.6662 4.28767 49.4743L10.5089 51.1768C13.171 41.4496 18.3213 32.5836 25.4524 25.4525L20.8916 20.8916Z"/>
</mask>
<path d="M20.8916 20.8916C12.9681 28.8151 7.24554 38.6662 4.28767 49.4743L10.5089 51.1768C13.171 41.4496 18.3213 32.5836 25.4524 25.4525L20.8916 20.8916Z" fill="#627EEA"/>
<path d="M20.8916 20.8916C12.9681 28.8151 7.24554 38.6662 4.28767 49.4743L10.5089 51.1768C13.171 41.4496 18.3213 32.5836 25.4524 25.4525L20.8916 20.8916Z" stroke="white" stroke-width="4" mask="url(#path-5-outside-5)"/>
<mask id="path-6-outside-6" maskUnits="userSpaceOnUse" x="17" y="5" width="28" height="24" fill="black">
<rect fill="white" x="17" y="5" width="28" height="24"/>
<path d="M38.9811 8.16513C32.1454 11.3898 25.9298 15.7907 20.6177 21.1671L25.206 25.7004C29.9868 20.8616 35.5809 16.9008 41.7329 13.9986L38.9811 8.16513Z"/>
</mask>
<path d="M38.9811 8.16513C32.1454 11.3898 25.9298 15.7907 20.6177 21.1671L25.206 25.7004C29.9868 20.8616 35.5809 16.9008 41.7329 13.9986L38.9811 8.16513Z" fill="#E6007A"/>
<path d="M38.9811 8.16513C32.1454 11.3898 25.9298 15.7907 20.6177 21.1671L25.206 25.7004C29.9868 20.8616 35.5809 16.9008 41.7329 13.9986L38.9811 8.16513Z" stroke="white" stroke-width="4" mask="url(#path-6-outside-6)"/>
<mask id="path-7-outside-7" maskUnits="userSpaceOnUse" x="55" y="0" width="14" height="12" fill="black">
<rect fill="white" x="55" width="14" height="12"/>
<path d="M66.5 2C63.5761 2 60.6556 2.19882 57.7586 2.59508L58.6328 8.98557C61.24 8.62894 63.8685 8.45 66.5 8.45V2Z"/>
</mask>
<path d="M66.5 2C63.5761 2 60.6556 2.19882 57.7586 2.59508L58.6328 8.98557C61.24 8.62894 63.8685 8.45 66.5 8.45V2Z" fill="#464371"/>
<path d="M66.5 2C63.5761 2 60.6556 2.19882 57.7586 2.59508L58.6328 8.98557C61.24 8.62894 63.8685 8.45 66.5 8.45V2Z" stroke="white" stroke-width="4" mask="url(#path-7-outside-7)"/>
<mask id="path-8-outside-8" maskUnits="userSpaceOnUse" x="64" y="0" width="69" height="71" fill="black">
<rect fill="white" x="64" width="69" height="71"/>
<path d="M66.5 2C75.1488 2 83.7093 3.73941 91.6723 7.11478C99.6353 10.4901 106.838 15.4325 112.852 21.6479C118.867 27.8633 123.569 35.2248 126.681 43.2945C129.793 51.3642 131.25 59.9773 130.965 68.6215L124.519 68.4093C124.775 60.6296 123.463 52.8778 120.663 45.6151C117.862 38.3523 113.63 31.727 108.217 26.1331C102.804 20.5393 96.3218 16.0911 89.1551 13.0533C81.9884 10.0155 74.284 8.45 66.5 8.45V2Z"/>
</mask>
<path d="M66.5 2C75.1488 2 83.7093 3.73941 91.6723 7.11478C99.6353 10.4901 106.838 15.4325 112.852 21.6479C118.867 27.8633 123.569 35.2248 126.681 43.2945C129.793 51.3642 131.25 59.9773 130.965 68.6215L124.519 68.4093C124.775 60.6296 123.463 52.8778 120.663 45.6151C117.862 38.3523 113.63 31.727 108.217 26.1331C102.804 20.5393 96.3218 16.0911 89.1551 13.0533C81.9884 10.0155 74.284 8.45 66.5 8.45V2Z" fill="#8DC351"/>
<path d="M66.5 2C75.1488 2 83.7093 3.73941 91.6723 7.11478C99.6353 10.4901 106.838 15.4325 112.852 21.6479C118.867 27.8633 123.569 35.2248 126.681 43.2945C129.793 51.3642 131.25 59.9773 130.965 68.6215L124.519 68.4093C124.775 60.6296 123.463 52.8778 120.663 45.6151C117.862 38.3523 113.63 31.727 108.217 26.1331C102.804 20.5393 96.3218 16.0911 89.1551 13.0533C81.9884 10.0155 74.284 8.45 66.5 8.45V2Z" stroke="white" stroke-width="4" mask="url(#path-8-outside-8)"/>
<mask id="path-9-outside-9" maskUnits="userSpaceOnUse" x="41" y="112" width="63" height="21" fill="black">
<rect fill="white" x="41" y="112" width="63" height="21"/>
<path d="M101.15 120.903C92.7016 126.283 83.1165 129.623 73.154 130.656C63.1915 131.689 53.1252 130.388 43.7527 126.856L46.0275 120.82C54.4627 123.999 63.5223 125.17 72.4886 124.24C81.4549 123.31 90.0814 120.305 97.6846 115.462L101.15 120.903Z"/>
</mask>
<path d="M101.15 120.903C92.7016 126.283 83.1165 129.623 73.154 130.656C63.1915 131.689 53.1252 130.388 43.7527 126.856L46.0275 120.82C54.4627 123.999 63.5223 125.17 72.4886 124.24C81.4549 123.31 90.0814 120.305 97.6846 115.462L101.15 120.903Z" fill="#F7931A"/>
<path d="M101.15 120.903C92.7016 126.283 83.1165 129.623 73.154 130.656C63.1915 131.689 53.1252 130.388 43.7527 126.856L46.0275 120.82C54.4627 123.999 63.5223 125.17 72.4886 124.24C81.4549 123.31 90.0814 120.305 97.6846 115.462L101.15 120.903Z" stroke="white" stroke-width="4" mask="url(#path-9-outside-9)"/>
</svg>
