<svg width="25" height="25" viewBox="0 0 25 25" fill="none" xmlns="http://www.w3.org/2000/svg">
<rect y="0.385742" width="24.1875" height="24.1875" rx="3.33621" fill="#8DC351"/>
<g clip-path="url(#clip0)">
<path d="M12.0938 21.5498C17.1031 21.5498 21.1641 17.4889 21.1641 12.4795C21.1641 7.4701 17.1031 3.40918 12.0938 3.40918C7.08435 3.40918 3.02344 7.4701 3.02344 12.4795C3.02344 17.4889 7.08435 21.5498 12.0938 21.5498Z" fill="#8DC351"/>
<path d="M15.0449 9.3809C14.605 8.26298 13.5019 8.16207 12.2173 8.41151L11.7598 6.81683L10.7893 7.09518L11.2348 8.64847C10.9797 8.72103 10.7201 8.80153 10.4622 8.8809L10.0143 7.3174L9.04436 7.59518L9.50071 9.18985C9.29209 9.25448 9.08688 9.31797 8.88563 9.37579L8.88393 9.37013L7.54492 9.75391L7.84254 10.7913C7.84254 10.7913 8.55569 10.5714 8.54719 10.5884C8.94062 10.4756 9.13393 10.6672 9.22746 10.8537L9.74901 12.67C9.77565 12.6626 9.81137 12.6536 9.85332 12.6473L9.75071 12.6768L10.4803 15.2222C10.4984 15.3509 10.4826 15.5691 10.2082 15.6485C10.2235 15.6559 9.50184 15.8503 9.50184 15.8503L9.64186 17.0652L10.9049 16.7023C11.1402 16.636 11.3726 16.5737 11.5999 16.5096L12.0631 18.1224L13.0325 17.8446L12.575 16.2488C12.835 16.1798 13.0943 16.108 13.3528 16.0334L13.8074 17.6224L14.7785 17.3441L14.317 15.7341C15.9219 15.1723 16.9463 14.4336 16.6487 12.8599C16.4095 11.5935 15.6714 11.2091 14.681 11.2522C15.1617 10.8044 15.3686 10.1989 15.0449 9.38146V9.3809ZM14.6765 13.2188C15.0223 14.4246 12.9191 14.8792 12.2615 15.0685L11.6487 12.9314C12.3063 12.7426 14.3153 11.962 14.6759 13.2193L14.6765 13.2188ZM13.3601 10.3333C13.6742 11.4302 11.9162 11.7959 11.3681 11.9529L10.8125 10.0147C11.3601 9.85766 13.0319 9.18985 13.3601 10.3338V10.3333Z" fill="white"/>
</g>
<defs>
<clipPath id="clip0">
<rect width="18.1406" height="18.1406" fill="white" transform="translate(3.02344 3.40918)"/>
</clipPath>
</defs>
</svg>
