<svg width="24" height="24" viewBox="0 0 24 24" fill="none" xmlns="http://www.w3.org/2000/svg">
<rect width="24" height="24" rx="4" fill="#FFBF22"/>
<path d="M12 21C16.9706 21 21 16.9706 21 12C21 7.02944 16.9706 3 12 3C7.02944 3 3 7.02944 3 12C3 16.9706 7.02944 21 12 21Z" fill="#FFC330"/>
<path d="M9.81525 11.1023L12 8.9175L14.1859 11.1034L15.4571 9.83212L12 6.375L8.544 9.831L9.81525 11.1023ZM6.375 12L7.64625 10.7287L8.9175 12L7.64625 13.2713L6.375 12ZM9.81525 12.8978L12 15.0825L14.1859 12.8966L15.4571 14.1673L12 17.625L8.544 14.169L8.54231 14.1673L9.81525 12.8978ZM15.0825 12L16.3538 10.7287L17.625 12L16.3538 13.2713L15.0825 12ZM13.2892 11.9989H13.2904V12L12 13.2904L10.7113 12.0022L10.7091 12L10.7113 11.9983L10.9369 11.7722L11.0466 11.6625L12 10.7096L13.2898 11.9994L13.2892 11.9989Z" fill="white"/>
</svg>
