<svg width="25" height="25" viewBox="0 0 25 25" fill="none" xmlns="http://www.w3.org/2000/svg">
<rect y="0.745605" width="24.1875" height="24.1875" rx="3.33621" fill="#F7931A"/>
<g clip-path="url(#clip0)">
<path d="M12.0938 21.9097C17.1031 21.9097 21.1641 17.8488 21.1641 12.8394C21.1641 7.82996 17.1031 3.76904 12.0938 3.76904C7.08435 3.76904 3.02344 7.82996 3.02344 12.8394C3.02344 17.8488 7.08435 21.9097 12.0938 21.9097Z" fill="#F7931A"/>
<path d="M16.168 11.7169C16.346 10.5287 15.4407 9.8898 14.2038 9.4635L14.6051 7.85352L13.6255 7.60975L13.2344 9.17722C12.977 9.11259 12.7128 9.0525 12.4492 8.99241L12.8432 7.41474L11.8636 7.17041L11.4623 8.77982C11.2491 8.73107 11.0393 8.68345 10.8364 8.63243L10.8375 8.62733L9.48606 8.29003L9.22529 9.33651C9.22529 9.33651 9.95261 9.50318 9.93731 9.51339C10.3341 9.61259 10.4056 9.87506 10.3937 10.0837L9.93674 11.9176C9.96395 11.9244 9.9991 11.9346 10.0388 11.9499L9.93504 11.9244L9.29445 14.4936C9.24569 14.6137 9.12268 14.7946 8.8449 14.726C8.8551 14.7402 8.13288 14.5485 8.13288 14.5485L7.64648 15.6699L8.922 15.9879C9.15896 16.0474 9.39139 16.1098 9.61984 16.1682L9.21452 17.7963L10.1935 18.04L10.5949 16.4301C10.8625 16.5021 11.1221 16.569 11.3761 16.6324L10.9759 18.2356L11.9555 18.4794L12.3608 16.8547C14.032 17.171 15.2882 17.0434 15.8171 15.5321C16.2434 14.3155 15.7962 13.6132 14.9169 13.1557C15.5575 13.0083 16.0394 12.5871 16.168 11.7169ZM13.9288 14.8564C13.6267 16.0735 11.5773 15.4153 10.9129 15.2504L11.4515 13.0933C12.1159 13.2594 14.2457 13.5877 13.9288 14.8564ZM14.2321 11.6993C13.956 12.8065 12.2508 12.2435 11.6981 12.1058L12.1856 10.15C12.7383 10.2878 14.5201 10.5446 14.2321 11.6993Z" fill="white"/>
</g>
<defs>
<clipPath id="clip0">
<rect width="18.1406" height="18.1406" fill="white" transform="translate(3.02344 3.76904)"/>
</clipPath>
</defs>
</svg>
