<svg width="24" height="24" viewBox="0 0 24 24" fill="none" xmlns="http://www.w3.org/2000/svg">
<rect width="24" height="24" rx="4" fill="#7FCEE2"/>
<g clip-path="url(#clip0)">
<path d="M7.87599 5.25095C11.9999 5.24968 16.124 5.24968 20.2484 5.25095C20.2497 6.58386 20.2497 7.91655 20.2484 9.24901C16.1244 9.25027 12.0003 9.25027 7.87599 9.24901C7.87467 7.91609 7.87467 6.5834 7.87599 5.25095Z" fill="white"/>
<path d="M3.00517 10.7531C4.33565 10.7462 5.66635 10.7462 6.99728 10.7531C7.00418 12.0835 7.00418 13.4141 6.99728 14.7449C5.66641 14.7518 4.3357 14.7519 3.00517 14.7453C2.99828 13.4147 2.99828 12.0839 3.00517 10.7531Z" fill="white"/>
<path d="M7.87966 10.7532C10.8562 10.7468 13.8326 10.7468 16.8087 10.7532C16.8151 12.0835 16.8151 13.4142 16.8087 14.745C13.8322 14.7512 10.8559 14.7512 7.87966 14.745C7.87345 13.4146 7.87345 12.0839 7.87966 10.7532Z" fill="white"/>
<path d="M7.88288 16.2567C9.21111 16.2422 10.5391 16.2422 11.8669 16.2567C11.8807 17.584 11.8809 18.9119 11.8675 20.2404C10.5393 20.2535 9.21128 20.2533 7.88357 20.2397C7.86977 18.9126 7.86954 17.5849 7.88288 16.2567Z" fill="white"/>
</g>
<defs>
<clipPath id="clip0">
<rect width="17.25" height="15" fill="white" transform="translate(3 5.25)"/>
</clipPath>
</defs>
</svg>
