<svg width="25" height="25" viewBox="0 0 25 25" fill="none" xmlns="http://www.w3.org/2000/svg">
<rect y="0.599121" width="24.1875" height="24.1875" rx="3.33621" fill="#BFBBBB"/>
<g clip-path="url(#clip0)">
<path d="M12.0938 21.7632C17.1031 21.7632 21.1641 17.7023 21.1641 12.6929C21.1641 7.68348 17.1031 3.62256 12.0938 3.62256C7.08435 3.62256 3.02344 7.68348 3.02344 12.6929C3.02344 17.7023 7.08435 21.7632 12.0938 21.7632Z" fill="#BFBBBB"/>
<path fill-rule="evenodd" clip-rule="evenodd" d="M8.93396 14.5149L8.125 14.8289L8.51502 13.2649L9.33362 12.9361L10.5133 8.15771H13.4209L12.5598 11.6702L13.3591 11.3465L12.9736 12.9055L12.1647 13.2292L11.684 15.2036H16.0615L15.5666 17.228H8.26786L8.93396 14.5149Z" fill="white"/>
</g>
<defs>
<clipPath id="clip0">
<rect width="18.1406" height="18.1406" fill="white" transform="translate(3.02344 3.62256)"/>
</clipPath>
</defs>
</svg>
