<svg width="24" height="24" viewBox="0 0 24 24" fill="none" xmlns="http://www.w3.org/2000/svg">
<rect width="24" height="24" rx="4" fill="black"/>
<path fill-rule="evenodd" clip-rule="evenodd" d="M5.06075 10.0478H17.0445C17.1948 10.0478 17.3372 10.1098 17.4408 10.2205L19.3367 12.2092C19.6863 12.5762 19.4377 13.2022 18.9404 13.2022H6.95661C6.80639 13.2022 6.66394 13.1402 6.56034 13.0295L4.66448 11.0408C4.31225 10.6738 4.56348 10.0478 5.06075 10.0478ZM4.66448 7.41143L6.56034 5.4227C6.66653 5.31206 6.80898 5.25 6.95661 5.25H18.9378C19.4351 5.25 19.6863 5.87603 19.3341 6.24302L17.4408 8.23175C17.3346 8.34238 17.1922 8.40444 17.0445 8.40444H5.06075C4.56348 8.40444 4.31225 7.77841 4.66448 7.41143ZM19.3341 15.8386L17.4382 17.8273C17.332 17.9379 17.1896 18 17.042 18H5.06075C4.56348 18 4.31225 17.374 4.66448 17.007L6.56034 15.0183C6.66653 14.9076 6.80898 14.8456 6.95661 14.8456H18.9378C19.4351 14.8456 19.6863 15.4716 19.3341 15.8386Z" fill="url(#paint0_linear)"/>
<defs>
<linearGradient id="paint0_linear" x1="5.35393" y1="18.5486" x2="19.1895" y2="5.26906" gradientUnits="userSpaceOnUse">
<stop stop-color="#CB4EE8"/>
<stop offset="1" stop-color="#10F4B1"/>
</linearGradient>
</defs>
</svg>
