<svg width="24" height="24" viewBox="0 0 24 24" fill="none" xmlns="http://www.w3.org/2000/svg">
<rect width="24" height="24" rx="4" fill="#43C9DC"/>
<g clip-path="url(#clip0)">
<path d="M11.9994 16.8582C9.6813 16.8582 7.79883 15.009 7.79883 12.7318C7.79883 10.518 11.6014 6.60813 11.7628 6.44434L11.9618 6.23828L12.1662 6.43906C12.3329 6.60285 16.2 10.5127 16.2 12.7265C16.2 15.009 14.3176 16.8582 11.9994 16.8582ZM11.9672 7.0361C11.6337 7.3901 10.9345 8.15621 10.2407 9.05441C9.00899 10.65 8.35819 11.9181 8.35819 12.7265C8.35819 14.6972 9.99325 16.3034 11.9994 16.3034C14.0056 16.3034 15.6407 14.6972 15.6407 12.7265C15.6407 11.9181 14.9791 10.65 13.7259 9.05441C13.0213 8.16149 12.306 7.3901 11.9672 7.0361Z" fill="white"/>
<path d="M12.0003 18.1791C8.93994 18.1791 6.45508 15.7329 6.45508 12.7318C6.45508 9.79415 10.6288 5.69411 10.8063 5.52504C10.9138 5.41937 11.0967 5.41937 11.2043 5.52504C11.3119 5.63071 11.3119 5.81035 11.2043 5.91602C11.1613 5.95829 7.01982 10.0266 7.01982 12.7318C7.01982 15.4317 9.25727 17.6297 12.0057 17.6297C14.7541 17.6297 16.9915 15.4317 16.9915 12.7318C16.9915 11.6223 16.2601 10.09 14.8724 8.28833C13.8075 6.90933 12.7371 5.86318 12.7264 5.85262C12.6134 5.74695 12.6134 5.57259 12.7264 5.46163C12.834 5.35068 13.0115 5.35068 13.1244 5.46163C13.3073 5.63599 17.5563 9.78886 17.5563 12.7318C17.5455 15.7329 15.0607 18.1791 12.0003 18.1791Z" fill="white"/>
<path d="M12 19.5003C8.27809 19.5003 5.25 16.5257 5.25 12.8695C5.25 11.3584 6.0245 9.49857 7.54661 7.34816C8.67072 5.7631 9.77331 4.63242 9.82171 4.58487C9.92928 4.47391 10.1068 4.47391 10.2197 4.57958C10.3327 4.68525 10.3327 4.85961 10.2251 4.97056C10.2143 4.98113 9.101 6.12238 8.00378 7.67046C6.56773 9.69406 5.80936 11.4905 5.80936 12.8695C5.80936 16.2192 8.58466 18.9508 12 18.9508C15.4153 18.9508 18.1906 16.2245 18.1906 12.8695C18.1906 11.4905 17.4269 9.69406 15.9801 7.67046C14.8721 6.12238 13.748 4.98113 13.7373 4.97056C13.6297 4.85961 13.6297 4.68525 13.7426 4.57958C13.8556 4.47391 14.0331 4.47391 14.1406 4.58487C14.3289 4.77507 18.75 9.28723 18.75 12.8695C18.75 16.5257 15.7219 19.5003 12 19.5003Z" fill="white"/>
</g>
<defs>
<clipPath id="clip0">
<rect width="13.5" height="15" fill="white" transform="translate(5.25 4.5)"/>
</clipPath>
</defs>
</svg>
