<svg width="25" height="25" viewBox="0 0 25 25" fill="none" xmlns="http://www.w3.org/2000/svg">
<rect width="24.1875" height="24.1875" rx="3.33621" fill="#26A17B"/>
<g clip-path="url(#clip0)">
<path d="M12.0938 21.1641C17.1031 21.1641 21.1641 17.1031 21.1641 12.0938C21.1641 7.08435 17.1031 3.02344 12.0938 3.02344C7.08435 3.02344 3.02344 7.08435 3.02344 12.0938C3.02344 17.1031 7.08435 21.1641 12.0938 21.1641Z" fill="#26A17B"/>
<path fill-rule="evenodd" clip-rule="evenodd" d="M13.1842 12.8777V12.8766C13.1218 12.8811 12.8004 12.9004 12.0832 12.9004C11.5107 12.9004 11.1076 12.8834 10.9659 12.8766V12.8783C8.76181 12.7813 7.11668 12.3976 7.11668 11.9384C7.11668 11.4797 8.76181 11.096 10.9659 10.9973V12.4962C11.1099 12.5064 11.5226 12.5308 12.0929 12.5308C12.7771 12.5308 13.1201 12.5024 13.1842 12.4968V10.9985C15.3837 11.0965 17.0249 11.4803 17.0249 11.9384C17.0249 12.3976 15.3837 12.7802 13.1842 12.8777ZM13.1842 10.8426V9.50129H16.2533V7.45593H7.89673V9.50129H10.9659V10.842C8.47156 10.9565 6.5957 11.4508 6.5957 12.0427C6.5957 12.6345 8.47156 13.1283 10.9659 13.2434V17.5416H13.1842V13.2422C15.6745 13.1277 17.5458 12.6339 17.5458 12.0427C17.5458 11.4514 15.6745 10.9576 13.1842 10.8426Z" fill="white"/>
</g>
<defs>
<clipPath id="clip0">
<rect width="18.1406" height="18.1406" fill="white" transform="translate(3.02344 3.02344)"/>
</clipPath>
</defs>
</svg>
