<svg width="24" height="24" viewBox="0 0 24 24" fill="none" xmlns="http://www.w3.org/2000/svg">
<rect width="24" height="24" rx="4" fill="#006AE3"/>
<g clip-path="url(#clip0)">
<path fill-rule="evenodd" clip-rule="evenodd" d="M12 2.25C17.384 2.25 21.75 6.61605 21.75 12C21.75 17.384 17.384 21.75 12 21.75C6.61605 21.75 2.25 17.384 2.25 12C2.25 6.61605 6.61605 2.25 12 2.25Z" fill="#006AE3"/>
<path d="M11.5977 16.1105V7.99854H12.481V16.1105H11.5977Z" fill="white"/>
<path d="M16.0946 10.7013L13.3665 11.4248L12.7581 8.59337L13.5693 8.41007L13.8891 9.75167C13.8891 9.75167 14.6262 8.54267 13.6434 7.29077C13.0643 6.64727 12.7893 6.61997 12.14 6.51857C11.5686 6.43667 10.2407 6.62972 9.84484 8.17997C9.67714 9.17837 9.86629 9.91742 11.1533 10.8846L11.0811 11.961C11.0811 11.961 9.64399 10.949 9.27349 10.2392C8.98684 9.67757 8.49544 8.56802 9.38269 7.02362C9.86044 6.25142 10.8023 5.51042 12.4617 5.58842C13.2963 5.62352 15.3341 6.64337 15.0182 9.02627C14.9636 9.47282 14.7315 10.0676 14.7315 10.0676L15.8508 9.81797L16.0946 10.7013Z" fill="white"/>
<path d="M14.5363 17.0485C14.0371 17.8071 13.0757 18.5227 11.4202 18.4018C10.5856 18.3453 8.57708 17.2708 8.95538 14.8977C9.02168 14.4531 9.26933 13.8661 9.26933 13.8661L8.14418 14.0845L7.92383 13.1973L10.6714 12.546L11.2057 15.393L10.3886 15.5548L10.1039 14.2035C10.1039 14.2035 9.33563 15.391 10.2833 16.6702C10.8449 17.3293 11.1179 17.3625 11.7673 17.4814C12.3347 17.5789 13.6685 17.419 14.1053 15.8805C14.2984 14.8879 14.1287 14.143 12.869 13.1407L12.9704 12.0663C12.9704 12.0663 14.3803 13.1154 14.7313 13.8349C15.0004 14.4063 15.4625 15.5295 14.5363 17.0485Z" fill="white"/>
</g>
<defs>
<clipPath id="clip0">
<rect width="19.5" height="19.5" fill="white" transform="translate(2.25 2.25)"/>
</clipPath>
</defs>
</svg>
